<?xml version="1.0" encoding="utf-8"?>
<!-- Generator: Adobe Illustrator 18.1.1, SVG Export Plug-In . SVG Version: 6.00 Build 0)  -->
<!DOCTYPE svg PUBLIC "-//W3C//DTD SVG 1.1//EN" "http://www.w3.org/Graphics/SVG/1.1/DTD/svg11.dtd">
<svg version="1.1" id="Layer_1" xmlns="http://www.w3.org/2000/svg" xmlns:xlink="http://www.w3.org/1999/xlink" x="0px" y="0px"
	 viewBox="0 0 50 50" enable-background="new 0 0 50 50" xml:space="preserve">
<path d="M47.3,23.6c0,0.9,0,1.9,0,2.8c0,0.1-0.1,0.3-0.1,0.4c-0.2,1.4-0.4,2.8-0.7,4.1c-2.2,8.3-9.3,14.7-17.7,16.1
	c-0.8,0.1-1.6,0.2-2.5,0.3c-0.9,0-1.9,0-2.8,0c-0.1,0-0.2-0.1-0.3-0.1c-1.2-0.2-2.3-0.3-3.5-0.6c-8.6-2-15.3-9.2-16.8-17.9
	c-0.1-0.8-0.2-1.6-0.3-2.5c0-0.9,0-1.9,0-2.8c0-0.1,0.1-0.3,0.1-0.4C2.9,22.1,3,21,3.3,20C6.2,7.5,18.6,0,30.9,3.5
	C39.8,6,45.1,12.1,47,21.2C47.2,22,47.2,22.8,47.3,23.6z M16,25.2c3.8,3.8,7.6,7.6,11.4,11.4c0.9-0.9,1.9-1.9,2.8-2.8
	c-2.8-2.8-5.7-5.7-8.6-8.6c2.6-2.6,5.3-5.2,7.8-7.8c-1-1-1.9-1.9-2.8-2.8C23.1,18.1,19.6,21.6,16,25.2z"/>
</svg>
