<?xml version="1.0" encoding="utf-8"?>
<!-- Generator: Adobe Illustrator 19.1.0, SVG Export Plug-In . SVG Version: 6.00 Build 0)  -->
<!DOCTYPE svg PUBLIC "-//W3C//DTD SVG 1.1//EN" "http://www.w3.org/Graphics/SVG/1.1/DTD/svg11.dtd">
<svg version="1.1" id="Layer_1" xmlns="http://www.w3.org/2000/svg" xmlns:xlink="http://www.w3.org/1999/xlink" x="0px" y="0px"
	 viewBox="0 0 50 50" enable-background="new 0 0 50 50" xml:space="preserve">
<g>
	<path fill="#231F20" d="M13.1,36.5h23.8V17.4H13.1V36.5z M29.7,20.9h5v3.4h-5V20.9z M29.7,26h5v3.4h-5V26z M22.5,20.9h5v3.4h-5
		V20.9z M22.5,26h5v3.4h-5V26z M22.5,31h5v3.4h-5V31z M15.3,20.9h5v3.4h-5V20.9z M15.3,26h5v3.4h-5V26z M15.3,31h5v3.4h-5V31z"/>
	<path fill="#231F20" d="M25,0.8C11.7,0.8,0.8,11.7,0.8,25c0,13.3,10.8,24.2,24.2,24.2S49.2,38.3,49.2,25C49.2,11.7,38.3,0.8,25,0.8
		z M30,10c0-1,0.8-1.7,1.7-1.7c1,0,1.7,0.8,1.7,1.7v2.8c0,1-0.8,1.7-1.7,1.7c-1,0-1.7-0.8-1.7-1.7V10z M16.5,10c0-1,0.8-1.7,1.7-1.7
		c1,0,1.7,0.8,1.7,1.7v2.8c0,1-0.8,1.7-1.7,1.7c-1,0-1.7-0.8-1.7-1.7V10z M39.2,36c0,1.5-1.3,2.8-2.8,2.8H13.6
		c-1.5,0-2.8-1.3-2.8-2.8V14.5c0-1.5,1.3-2.8,2.8-2.8h2.2v1.1c0,1.4,1.1,2.5,2.5,2.5s2.5-1.1,2.5-2.5v-1.1h8.5v1.1
		c0,1.4,1.1,2.5,2.5,2.5c1.4,0,2.5-1.1,2.5-2.5v-1.1h2.2c1.5,0,2.8,1.3,2.8,2.8V36z"/>
</g>
</svg>
