<?xml version="1.0" encoding="utf-8"?>
<!-- Generator: Adobe Illustrator 19.1.0, SVG Export Plug-In . SVG Version: 6.00 Build 0)  -->
<!DOCTYPE svg PUBLIC "-//W3C//DTD SVG 1.1//EN" "http://www.w3.org/Graphics/SVG/1.1/DTD/svg11.dtd">
<svg version="1.1" id="Layer_1" xmlns="http://www.w3.org/2000/svg" xmlns:xlink="http://www.w3.org/1999/xlink" x="0px" y="0px"
	 viewBox="0 0 50 50" enable-background="new 0 0 50 50" xml:space="preserve">
<g>
	<circle fill="#231F20" cx="25" cy="11.5" r="1.4"/>
	<path fill="#231F20" d="M29.8,19.7c-0.3-2.4-2.4-4.1-4.8-4.1c-2.4,0-4.4,1.8-4.8,4.1c0,0.1,0,0.2-0.1,0.3c0,6.6-2.3,10.4-4.5,12.5
		h18.6c-2.1-2.1-4.5-5.9-4.5-12.5C29.8,19.9,29.8,19.8,29.8,19.7z"/>
	<path fill="#231F20" d="M25,0.8C11.7,0.8,0.8,11.7,0.8,25c0,13.3,10.8,24.2,24.2,24.2S49.2,38.3,49.2,25C49.2,11.7,38.3,0.8,25,0.8
		z M25,42c-2.7,0-4.8-2.1-4.9-4.8h9.8C29.8,39.9,27.7,42,25,42z M38.7,34.5c0,0.4-0.3,0.7-0.7,0.7H12c-0.4,0-0.7-0.3-0.7-0.7v-1.6
		c0-0.4,0.3-0.8,0.6-1c1.6-0.9,5.5-3.8,5.5-12c0-0.2,0-0.4,0.1-0.6c0.3-1.8,1.1-3.3,2.4-4.5h0c0,0,1.6-1.8,1.7-3.2
		c0-0.1,0-0.1,0-0.1c0-1.9,1.5-3.4,3.4-3.4c1.9,0,3.4,1.5,3.4,3.3c0,0,0,0.1,0,0.1c0,1.5,1.7,3.3,1.7,3.3h0c1.3,1.1,2.1,2.7,2.4,4.5
		c0.1,0.2,0.1,0.4,0.1,0.6c0,8.2,3.9,11.1,5.5,12c0.3,0.2,0.6,0.6,0.6,1V34.5z"/>
</g>
</svg>
