<?xml version="1.0" encoding="utf-8"?>
<!-- Generator: Adobe Illustrator 18.1.1, SVG Export Plug-In . SVG Version: 6.00 Build 0)  -->
<!DOCTYPE svg PUBLIC "-//W3C//DTD SVG 1.1//EN" "http://www.w3.org/Graphics/SVG/1.1/DTD/svg11.dtd">
<svg version="1.1" id="Layer_1" xmlns="http://www.w3.org/2000/svg" xmlns:xlink="http://www.w3.org/1999/xlink" x="0px" y="0px"
	 viewBox="0 0 50 50" enable-background="new 0 0 50 50" xml:space="preserve">
<path d="M3,21.2C4.9,12.1,10.2,6,19.1,3.5C31.4,0,43.8,7.5,46.7,20c0.2,1.1,0.3,2.1,0.5,3.2c0,0.1,0.1,0.3,0.1,0.4
	c0,0.9,0,1.9,0,2.8c-0.1,0.8-0.2,1.6-0.3,2.5c-1.5,8.7-8.2,15.9-16.8,17.9c-1.1,0.3-2.3,0.4-3.5,0.6c-0.1,0-0.2,0-0.3,0.1
	c-0.9,0-1.9,0-2.8,0c-0.8-0.1-1.6-0.2-2.5-0.3c-8.4-1.4-15.5-7.8-17.7-16.1c-0.4-1.3-0.5-2.7-0.7-4.1c0-0.1-0.1-0.3-0.1-0.4
	c0-0.9,0-1.9,0-2.8C2.8,22.8,2.8,22,3,21.2z M23.3,14.5c-0.9,0.9-1.9,1.8-2.8,2.8c2.6,2.6,5.2,5.2,7.8,7.8c-2.9,2.9-5.7,5.7-8.6,8.6
	c1,1,1.9,1.9,2.8,2.8c3.8-3.8,7.6-7.6,11.4-11.4C30.4,21.6,26.9,18.1,23.3,14.5z"/>
</svg>
