<?xml version="1.0" encoding="utf-8"?>
<!-- Generator: Adobe Illustrator 18.1.1, SVG Export Plug-In . SVG Version: 6.00 Build 0)  -->
<!DOCTYPE svg PUBLIC "-//W3C//DTD SVG 1.1//EN" "http://www.w3.org/Graphics/SVG/1.1/DTD/svg11.dtd">
<svg version="1.1" id="Layer_1" xmlns="http://www.w3.org/2000/svg" xmlns:xlink="http://www.w3.org/1999/xlink" x="0px" y="0px"
	 viewBox="0 0 50 50" enable-background="new 0 0 50 50" xml:space="preserve">
<path d="M30.5,14c0-1.4,0-2.6,0-3.8c1.8,0,3.6,0,5.5,0c0,0.5,0,1.1,0,1.6c0,2.1,0,4.2,0,6.4c0,0.7,0.1,1.2,0.7,1.6
	c1.1,1,2.2,2.1,3.5,3.3c-1,0-1.8,0-2.7,0c0,4.7,0,9.4,0,14.1c-2.8,0-5.5,0-8.3,0c0-3.8,0-7.5,0-11.4c-2.8,0-5.4,0-8.2,0
	c0,3.8,0,7.5,0,11.4c-2.8,0-5.5,0-8.3,0c0-4.7,0-9.3,0-14c-0.9,0-1.7,0-2.8,0C15,18.3,20,13.6,25,8.9C26.8,10.6,28.5,12.2,30.5,14z"
	/>
<path d="M25,47.8C12.4,47.8,2.2,37.6,2.2,25C2.2,12.4,12.4,2.2,25,2.2S47.8,12.4,47.8,25C47.8,37.6,37.6,47.8,25,47.8z M25,4.8
	C13.9,4.8,4.8,13.9,4.8,25c0,11.1,9.1,20.2,20.2,20.2S45.2,36.1,45.2,25C45.2,13.9,36.1,4.8,25,4.8z"/>
</svg>
