<?xml version="1.0" encoding="utf-8"?>
<!-- Generator: Adobe Illustrator 18.1.1, SVG Export Plug-In . SVG Version: 6.00 Build 0)  -->
<!DOCTYPE svg PUBLIC "-//W3C//DTD SVG 1.1//EN" "http://www.w3.org/Graphics/SVG/1.1/DTD/svg11.dtd">
<svg version="1.1" id="Layer_1" xmlns="http://www.w3.org/2000/svg" xmlns:xlink="http://www.w3.org/1999/xlink" x="0px" y="0px"
	 viewBox="0 0 50 50" enable-background="new 0 0 50 50" xml:space="preserve">
<path d="M50,22.9c-0.4,0.5-0.8,0.9-1.3,1.4c-2.2,2.6-4.4,5.1-6.6,7.7c-0.8,1-1.7,1.9-2.5,2.9c-0.1,0.1-0.1,0.2-0.2,0.3
	c-3.8-4.1-7.6-8.2-11.5-12.4c2.7,0,5.4,0,8.2,0c-0.1-0.6-0.2-1.1-0.3-1.6c-1.2-4.8-4.2-8-8.8-9.8c-2.1-0.8-4.2-1.1-6.4-0.9
	c-3.4,0.3-6.4,1.6-8.9,4c-2.2,2.1-3.6,4.7-4,7.8C7,26.5,8,30.4,10.8,33.7c2.2,2.6,4.9,4.2,8.2,4.8c4.1,0.7,7.9-0.1,11.3-2.7
	c0.1-0.1,0.2-0.1,0.3-0.2c0,0,0,0,0.1,0c1.6,1.7,3.2,3.4,4.8,5.1c-1,0.8-2,1.6-3.1,2.2c-2.3,1.4-4.9,2.3-7.6,2.7
	c-1.6,0.2-3.1,0.3-4.7,0.2c-4.3-0.4-8.2-1.9-11.6-4.6c-3.7-3-6.2-6.8-7.4-11.4c-0.5-1.8-0.7-3.6-0.6-5.4c0.1-4.8,1.6-9.1,4.5-12.8
	c2.5-3.2,5.7-5.5,9.5-6.9C16,4,17.6,3.7,19.2,3.5c1.4-0.2,2.7-0.2,4.1-0.1c2.9,0.2,5.7,1,8.3,2.4c5.8,3.1,9.4,7.9,10.9,14.3
	c0.2,0.8,0.3,1.7,0.4,2.6c0,0.2,0.1,0.2,0.2,0.2c2.3,0,4.6,0,6.9,0C50,22.9,50,22.9,50,22.9z"/>
</svg>
